<svg width="40" height="40" viewBox="0 0 40 40" fill="none" xmlns="http://www.w3.org/2000/svg">
<g filter="url(#filter0_d_128_2146)">
<path d="M6.66667 4H36V18.6667H33.3333V6.66667H6.66667V25.3333H22.6667V28H4V4H6.66667ZM17.3333 9.33333H12V14.6667H17.3333V9.33333ZM9.33333 17.3333H20V22.6667H9.33333V17.3333ZM30.6667 9.33333H22.6667V12H30.6667V9.33333ZM22.6667 14.6667H30.6667V17.3333H22.6667V14.6667ZM26.6667 20H22.6667V22.6667H26.6667V20ZM32 28V32H29.3333V28H25.3333V25.3333H29.3333V21.3333H32V25.3333H36V28H32Z" fill="white"/>
</g>
<defs>
<filter id="filter0_d_128_2146" x="0" y="0" width="40" height="40" filterUnits="userSpaceOnUse" color-interpolation-filters="sRGB">
<feFlood flood-opacity="0" result="BackgroundImageFix"/>
<feColorMatrix in="SourceAlpha" type="matrix" values="0 0 0 0 0 0 0 0 0 0 0 0 0 0 0 0 0 0 127 0" result="hardAlpha"/>
<feOffset dy="4"/>
<feGaussianBlur stdDeviation="2"/>
<feComposite in2="hardAlpha" operator="out"/>
<feColorMatrix type="matrix" values="0 0 0 0 0 0 0 0 0 0 0 0 0 0 0 0 0 0 0.25 0"/>
<feBlend mode="normal" in2="BackgroundImageFix" result="effect1_dropShadow_128_2146"/>
<feBlend mode="normal" in="SourceGraphic" in2="effect1_dropShadow_128_2146" result="shape"/>
</filter>
</defs>
</svg>
