<svg width="34" height="32" viewBox="0 0 34 32" fill="none" xmlns="http://www.w3.org/2000/svg">
<path d="M17 14.2047C19.4828 14.2047 21.4955 12.3342 21.4955 10.0269C21.4955 7.71958 19.4828 5.84912 17 5.84912C14.5171 5.84912 12.5044 7.71958 12.5044 10.0269C12.5044 12.3342 14.5171 14.2047 17 14.2047Z" fill="white"/>
<path d="M10.1812 10.4444H10.6345V10.0622C10.6372 8.95072 10.9704 7.86215 11.5963 6.91962C12.2222 5.9771 13.1158 5.21823 14.1762 4.72885C13.8623 4.04846 13.3584 3.46079 12.7182 3.02826C12.0779 2.59573 11.3251 2.33449 10.5398 2.27228C9.75442 2.21007 8.96583 2.34923 8.25776 2.67496C7.5497 3.00069 6.94859 3.50084 6.51828 4.12228C6.08797 4.74372 5.84453 5.46325 5.81382 6.20445C5.78311 6.94565 5.96627 7.68084 6.34385 8.33193C6.72143 8.98303 7.27933 9.52572 7.9583 9.90236C8.63726 10.279 9.41194 10.4755 10.2 10.4711L10.1812 10.4444ZM23.3845 10.0266V10.4089H23.8378C24.6154 10.4015 25.3766 10.197 26.0411 9.81684C26.7056 9.43669 27.249 8.89496 27.614 8.24868C27.9789 7.60239 28.1521 6.87545 28.1151 6.14437C28.0781 5.41329 27.8324 4.70511 27.4038 4.09437C26.9753 3.48364 26.3797 2.99294 25.6798 2.67392C24.9799 2.3549 24.2016 2.21936 23.4268 2.28157C22.6519 2.34378 21.9092 2.60143 21.2769 3.02742C20.6445 3.4534 20.1458 4.03196 19.8334 4.70218C20.894 5.18965 21.7887 5.9466 22.4162 6.8875C23.0437 7.8284 23.3791 8.91573 23.3845 10.0266ZM21.0517 14.6222C22.9295 14.972 24.7452 15.5705 26.4445 16.4C26.6839 16.5237 26.9007 16.6828 27.0867 16.8711H32.1112V13.8311C32.1121 13.7145 32.0791 13.5999 32.0159 13.4996C31.9526 13.3993 31.8615 13.3172 31.7523 13.2622C29.3044 12.0571 26.5814 11.4317 23.8189 11.44H23.1956C22.8683 12.6922 22.1155 13.8095 21.0517 14.6222ZM6.16727 18.5955C6.16554 18.1478 6.294 17.7083 6.53872 17.3244C6.78344 16.9405 7.1351 16.627 7.5556 16.4177C9.25492 15.5883 11.0706 14.9898 12.9484 14.64C11.8897 13.8342 11.1374 12.7269 10.8045 11.4844H10.1812C7.41868 11.4761 4.69568 12.1016 2.24782 13.3066C2.13862 13.3617 2.04747 13.4438 1.98421 13.544C1.92096 13.6443 1.88802 13.7589 1.88893 13.8755V19.5555H6.16727V18.5955ZM20.2678 23.7244H25.8967V24.9689H20.2678V23.7244Z" fill="white"/>
<path d="M30.9873 18.8979H24.4989V18.009C24.4989 17.7733 24.3994 17.5472 24.2223 17.3805C24.0452 17.2138 23.805 17.1201 23.5545 17.1201C23.304 17.1201 23.0638 17.2138 22.8867 17.3805C22.7096 17.5472 22.6101 17.7733 22.6101 18.009V18.8979H20.7778V16.3824C19.5353 16.1368 18.2697 16.0087 17.0001 16.0001C14.0192 15.9885 11.0809 16.6661 8.44339 17.9735C8.32592 18.0308 8.22758 18.1177 8.15924 18.2243C8.0909 18.331 8.05523 18.4534 8.05617 18.5779V23.5646H14.7712V28.9779C14.7712 29.2137 14.8707 29.4398 15.0478 29.6065C15.2249 29.7732 15.4651 29.8668 15.7156 29.8668H30.9873C31.2378 29.8668 31.478 29.7732 31.6551 29.6065C31.8322 29.4398 31.9317 29.2137 31.9317 28.9779V19.7868C31.9317 19.5511 31.8322 19.325 31.6551 19.1583C31.478 18.9916 31.2378 18.8979 30.9873 18.8979ZM30.0428 28.1068H16.6601V20.6757H22.6101V21.4846C22.6101 21.7203 22.7096 21.9464 22.8867 22.1131C23.0638 22.2798 23.304 22.3735 23.5545 22.3735C23.805 22.3735 24.0452 22.2798 24.2223 22.1131C24.3994 21.9464 24.4989 21.7203 24.4989 21.4846V20.6757H30.0428V28.1068Z" fill="white"/>
</svg>
