<svg width="34" height="32" viewBox="0 0 34 32" fill="none" xmlns="http://www.w3.org/2000/svg">
<g clip-path="url(#clip0_128_1290)">
<path d="M9.44444 8.88894C9.69493 8.88894 9.93515 8.79529 10.1123 8.62859C10.2894 8.46189 10.3889 8.2358 10.3889 8.00005V2.66672C10.3889 2.43097 10.2894 2.20488 10.1123 2.03818C9.93515 1.87148 9.69493 1.77783 9.44444 1.77783C9.19396 1.77783 8.95374 1.87148 8.77662 2.03818C8.5995 2.20488 8.5 2.43097 8.5 2.66672V8.00005C8.5 8.2358 8.5995 8.46189 8.77662 8.62859C8.95374 8.79529 9.19396 8.88894 9.44444 8.88894Z" fill="white"/>
<path d="M24.5555 8.88894C24.806 8.88894 25.0462 8.79529 25.2234 8.62859C25.4005 8.46189 25.5 8.2358 25.5 8.00005V2.66672C25.5 2.43097 25.4005 2.20488 25.2234 2.03818C25.0462 1.87148 24.806 1.77783 24.5555 1.77783C24.305 1.77783 24.0648 1.87148 23.8877 2.03818C23.7106 2.20488 23.6111 2.43097 23.6111 2.66672V8.00005C23.6111 8.2358 23.7106 8.46189 23.8877 8.62859C24.0648 8.79529 24.305 8.88894 24.5555 8.88894Z" fill="white"/>
<path d="M30.4584 5.33311H26.6806V7.99978C26.6806 8.51842 26.4617 9.01583 26.072 9.38256C25.6824 9.7493 25.1539 9.95533 24.6028 9.95533C24.0517 9.95533 23.5233 9.7493 23.1336 9.38256C22.7439 9.01583 22.525 8.51842 22.525 7.99978V5.33311H11.5222V7.99978C11.5222 8.51842 11.3033 9.01583 10.9137 9.38256C10.524 9.7493 9.99553 9.95533 9.44447 9.95533C8.89341 9.95533 8.36492 9.7493 7.97526 9.38256C7.5856 9.01583 7.36669 8.51842 7.36669 7.99978V5.33311H3.58891C3.36416 5.3307 3.14117 5.37074 2.93314 5.45085C2.72511 5.53097 2.53627 5.64953 2.37777 5.79953C2.21928 5.94953 2.09435 6.12793 2.01038 6.32416C1.92642 6.52039 1.88511 6.73048 1.88891 6.942V26.8353C1.88516 27.0431 1.92494 27.2496 2.00597 27.4429C2.08701 27.6362 2.20771 27.8126 2.36119 27.962C2.51468 28.1114 2.69793 28.2309 2.90048 28.3136C3.10303 28.3964 3.32092 28.4407 3.54169 28.4442H30.4584C30.6791 28.4407 30.897 28.3964 31.0996 28.3136C31.3021 28.2309 31.4854 28.1114 31.6389 27.962C31.7923 27.8126 31.913 27.6362 31.9941 27.4429C32.0751 27.2496 32.1149 27.0431 32.1111 26.8353V6.942C32.1149 6.73421 32.0751 6.52776 31.9941 6.33444C31.913 6.14113 31.7923 5.96473 31.6389 5.81532C31.4854 5.66592 31.3021 5.54643 31.0996 5.46369C30.897 5.38096 30.6791 5.33658 30.4584 5.33311ZM24.4989 14.7376L15.3661 23.3331L10.3889 18.6131C10.1684 18.3849 10.049 18.0859 10.055 17.7774C10.0611 17.469 10.1923 17.1744 10.4216 16.954C10.651 16.7336 10.9612 16.6041 11.2887 16.5919C11.6162 16.5798 11.9363 16.6859 12.1834 16.8887L15.3756 19.8931L22.6667 13.0309C22.7864 12.9182 22.9285 12.8289 23.0848 12.7679C23.2412 12.707 23.4088 12.6756 23.5781 12.6756C23.7473 12.6756 23.9149 12.707 24.0713 12.7679C24.2277 12.8289 24.3698 12.9182 24.4895 13.0309C24.6092 13.1435 24.7041 13.2773 24.7689 13.4244C24.8336 13.5716 24.867 13.7294 24.867 13.8887C24.867 14.048 24.8336 14.2057 24.7689 14.3529C24.7041 14.5001 24.6092 14.6338 24.4895 14.7464L24.4989 14.7376Z" fill="white"/>
</g>
<defs>
<clipPath id="clip0_128_1290">
<rect width="34" height="32" fill="white"/>
</clipPath>
</defs>
</svg>
