<svg width="34" height="32" viewBox="0 0 34 32" fill="none" xmlns="http://www.w3.org/2000/svg">
<path d="M17 2.6665C9.18004 2.6665 2.83337 8.63984 2.83337 15.9998C2.83337 23.3598 9.18004 29.3332 17 29.3332C24.82 29.3332 31.1667 23.3598 31.1667 15.9998C31.1667 8.63984 24.82 2.6665 17 2.6665ZM18.4167 25.3332H15.5834V22.6665H18.4167V25.3332ZM21.3492 14.9998L20.0742 16.2265C19.0542 17.1998 18.4167 17.9998 18.4167 19.9998H15.5834V19.3332C15.5834 17.8665 16.2209 16.5332 17.2409 15.5598L18.9975 13.8798C19.5217 13.3998 19.8334 12.7332 19.8334 11.9998C19.8334 10.5332 18.5584 9.33317 17 9.33317C15.4417 9.33317 14.1667 10.5332 14.1667 11.9998H11.3334C11.3334 9.05317 13.8692 6.6665 17 6.6665C20.1309 6.6665 22.6667 9.05317 22.6667 11.9998C22.6667 13.1732 22.1567 14.2398 21.3492 14.9998Z" fill="white"/>
</svg>
