<svg width="34" height="32" viewBox="0 0 34 32" fill="none" xmlns="http://www.w3.org/2000/svg">
<path d="M21.9583 26.5668L15.9375 20.9002L17.9208 19.0335L21.9583 22.8335L29.9625 15.3002L31.9458 17.1668L21.9583 26.5668ZM29.75 13.3335H26.9167V6.66683H24.0833V10.6668H9.91667V6.66683H7.08333V25.3335H15.5833V28.0002H7.08333C6.30417 28.0002 5.63739 27.7393 5.083 27.2175C4.52861 26.6957 4.25094 26.0677 4.25 25.3335V6.66683C4.25 5.9335 4.52767 5.30594 5.083 4.78416C5.63833 4.26238 6.30511 4.00105 7.08333 4.00016H12.9979C13.2576 3.22238 13.7653 2.58372 14.5208 2.08416C15.2764 1.58461 16.1028 1.33438 17 1.3335C17.9444 1.3335 18.7888 1.58372 19.533 2.08416C20.2772 2.58461 20.7787 3.22327 21.0375 4.00016H26.9167C27.6958 4.00016 28.3631 4.2615 28.9184 4.78416C29.4738 5.30683 29.7509 5.93438 29.75 6.66683V13.3335ZM17 6.66683C17.4014 6.66683 17.7381 6.53883 18.0101 6.28283C18.2821 6.02683 18.4176 5.71038 18.4167 5.3335C18.4167 4.95572 18.2807 4.63927 18.0087 4.38416C17.7367 4.12905 17.4004 4.00105 17 4.00016C16.5986 4.00016 16.2624 4.12816 15.9913 4.38416C15.7203 4.64016 15.5843 4.95661 15.5833 5.3335C15.5833 5.71127 15.7193 6.02816 15.9913 6.28416C16.2633 6.54016 16.5996 6.66772 17 6.66683Z" fill="white"/>
</svg>
