<svg width="34" height="32" viewBox="0 0 34 32" fill="none" xmlns="http://www.w3.org/2000/svg">
<path fill-rule="evenodd" clip-rule="evenodd" d="M25.5459 11.5712C25.8922 11.2998 26.3389 11.1689 26.7877 11.2073C27.2366 11.2457 27.6509 11.4502 27.9395 11.776L31.4806 15.776C31.7564 16.1032 31.8854 16.519 31.8399 16.9345C31.7944 17.35 31.5781 17.7323 31.2372 17.9997C30.8962 18.2671 30.4577 18.3984 30.0153 18.3656C29.5729 18.3328 29.1616 18.1384 28.8694 17.824L25.3283 13.824C25.0399 13.4981 24.9008 13.0777 24.9416 12.6552C24.9824 12.2328 25.1997 11.8429 25.5459 11.5712Z" fill="white"/>
<path fill-rule="evenodd" clip-rule="evenodd" d="M25.5459 22.0287C25.1995 21.7573 24.9818 21.3675 24.9407 20.945C24.8996 20.5226 25.0384 20.1021 25.3266 19.7759L28.8694 15.7759C29.0103 15.6088 29.1853 15.4699 29.3841 15.3673C29.5829 15.2648 29.8014 15.2007 30.0269 15.1788C30.2524 15.157 30.4803 15.1778 30.6971 15.24C30.9139 15.3023 31.1153 15.4047 31.2894 15.5413C31.4636 15.6778 31.6069 15.8458 31.7111 16.0353C31.8152 16.2248 31.8781 16.432 31.8959 16.6447C31.9137 16.8574 31.8861 17.0713 31.8148 17.2738C31.7435 17.4763 31.6299 17.6633 31.4806 17.8239L27.9395 21.8239C27.6509 22.1497 27.2366 22.3543 26.7878 22.3927C26.3389 22.4311 25.8922 22.3002 25.5459 22.0287Z" fill="white"/>
<path fill-rule="evenodd" clip-rule="evenodd" d="M29.75 16.8C29.75 17.2243 29.5709 17.6313 29.2521 17.9314C28.9332 18.2314 28.5008 18.4 28.05 18.4H17C16.5491 18.4 16.1167 18.2314 15.7979 17.9314C15.4791 17.6313 15.3 17.2243 15.3 16.8C15.3 16.3757 15.4791 15.9687 15.7979 15.6686C16.1167 15.3686 16.5491 15.2 17 15.2H28.05C28.5008 15.2 28.9332 15.3686 29.2521 15.6686C29.5709 15.9687 29.75 16.3757 29.75 16.8ZM5.09998 5.6C5.09998 5.17565 5.27908 4.76869 5.59789 4.46863C5.91671 4.16857 6.34911 4 6.79998 4H22.1C22.5508 4 22.9832 4.16857 23.3021 4.46863C23.6209 4.76869 23.8 5.17565 23.8 5.6C23.8 6.02435 23.6209 6.43131 23.3021 6.73137C22.9832 7.03143 22.5508 7.2 22.1 7.2H6.79998C6.34911 7.2 5.91671 7.03143 5.59789 6.73137C5.27908 6.43131 5.09998 6.02435 5.09998 5.6ZM5.09998 28C5.09998 27.5757 5.27908 27.1687 5.59789 26.8686C5.91671 26.5686 6.34911 26.4 6.79998 26.4H22.1C22.5508 26.4 22.9832 26.5686 23.3021 26.8686C23.6209 27.1687 23.8 27.5757 23.8 28C23.8 28.4243 23.6209 28.8313 23.3021 29.1314C22.9832 29.4314 22.5508 29.6 22.1 29.6H6.79998C6.34911 29.6 5.91671 29.4314 5.59789 29.1314C5.27908 28.8313 5.09998 28.4243 5.09998 28Z" fill="white"/>
<path fill-rule="evenodd" clip-rule="evenodd" d="M22.1 4C22.5508 4 22.9832 4.16857 23.3021 4.46863C23.6209 4.76869 23.8 5.17565 23.8 5.6V12C23.8 12.4243 23.6209 12.8313 23.3021 13.1314C22.9832 13.4314 22.5508 13.6 22.1 13.6C21.6491 13.6 21.2167 13.4314 20.8979 13.1314C20.5791 12.8313 20.4 12.4243 20.4 12V5.6C20.4 5.17565 20.5791 4.76869 20.8979 4.46863C21.2167 4.16857 21.6491 4 22.1 4ZM22.1 20C22.5508 20 22.9832 20.1686 23.3021 20.4686C23.6209 20.7687 23.8 21.1757 23.8 21.6V28C23.8 28.4243 23.6209 28.8313 23.3021 29.1314C22.9832 29.4314 22.5508 29.6 22.1 29.6C21.6491 29.6 21.2167 29.4314 20.8979 29.1314C20.5791 28.8313 20.4 28.4243 20.4 28V21.6C20.4 21.1757 20.5791 20.7687 20.8979 20.4686C21.2167 20.1686 21.6491 20 22.1 20ZM6.79998 4C7.25084 4 7.68325 4.16857 8.00206 4.46863C8.32087 4.76869 8.49998 5.17565 8.49998 5.6V28C8.49998 28.4243 8.32087 28.8313 8.00206 29.1314C7.68325 29.4314 7.25084 29.6 6.79998 29.6C6.34911 29.6 5.91671 29.4314 5.59789 29.1314C5.27908 28.8313 5.09998 28.4243 5.09998 28V5.6C5.09998 5.17565 5.27908 4.76869 5.59789 4.46863C5.91671 4.16857 6.34911 4 6.79998 4Z" fill="white"/>
</svg>
