<svg width="31" height="30" viewBox="0 0 31 30" fill="none" xmlns="http://www.w3.org/2000/svg">
<g clip-path="url(#clip0_128_2119)">
<path d="M20.1572 2.27211C20.1067 2.28092 20.057 2.29287 20.0081 2.30788H1.19232C1.15498 2.30618 1.11758 2.30618 1.08024 2.30788C0.783831 2.33496 0.508614 2.46838 0.308713 2.6819C0.108813 2.89542 -0.00130632 3.1736 1.1696e-05 3.46172V21.8875C1.1696e-05 24.6163 1.57267 26.2929 3.0559 27.0071C4.53793 27.7213 5.96155 27.6925 5.96155 27.6925H25.1506C25.1629 27.6927 25.1752 27.6927 25.1875 27.6925C25.3962 27.6925 26.5897 27.6625 27.9453 27.0071C29.3594 26.3229 30.8391 24.7467 30.9619 22.2475C30.9626 22.2237 30.9626 22.1998 30.9619 22.176C30.9642 22.1506 30.9988 22.1298 31 22.1033C31.0049 22.0434 31.0049 21.9832 31 21.9233C31.0018 21.8871 31.0018 21.8509 31 21.8148V9.26672C31.0002 9.2548 31.0002 9.24288 31 9.23095C31 9.23095 30.9952 8.42095 30.5529 7.57172C30.1511 6.80211 29.1853 5.95634 27.8332 5.80634C27.7021 5.75859 27.5632 5.73359 27.4231 5.73249H21.4615V3.67749C21.4685 3.60573 21.4685 3.53349 21.4615 3.46172C21.4647 3.41369 21.4647 3.36552 21.4615 3.31749C21.4623 3.29327 21.4623 3.26902 21.4615 3.2448C21.4617 3.23326 21.4617 3.22172 21.4615 3.21018C21.4501 3.18554 21.4378 3.1613 21.4246 3.13749C21.4248 3.12557 21.4248 3.11364 21.4246 3.10172C21.4137 3.06498 21.401 3.02878 21.3864 2.99326C21.3639 2.95579 21.3392 2.91958 21.3125 2.8848C21.2809 2.82162 21.2434 2.76137 21.2004 2.7048C21.1649 2.67858 21.1279 2.65431 21.0896 2.63211C21.0444 2.57987 20.9945 2.5316 20.9405 2.48788C20.9278 2.48768 20.9151 2.48768 20.9024 2.48788C20.7791 2.40334 20.6403 2.34225 20.4934 2.30788C20.3836 2.28055 20.2704 2.26851 20.1572 2.27211ZM2.38463 4.61557H19.0769V6.6348C19.0439 6.78931 19.0439 6.94875 19.0769 7.10326V21.8886C19.0769 23.3656 19.561 24.5136 20.2323 25.386H5.96155C5.96155 25.386 5.42024 25.3883 4.76924 25.206C4.53816 25.1412 4.31351 25.0567 4.09797 24.9533C3.19659 24.5183 2.38463 23.8617 2.38463 21.8875V4.61557ZM4.76924 6.92326C4.11228 6.92326 3.57693 7.44134 3.57693 8.07711V10.3848C3.57693 11.0206 4.11228 11.5386 4.76924 11.5386H16.6923C17.3493 11.5386 17.8846 11.0206 17.8846 10.3848V8.07711C17.8846 7.44134 17.3493 6.92326 16.6923 6.92326H4.76924ZM21.4615 8.04134H24.0703C23.8474 8.67365 23.8462 9.19518 23.8462 9.19518C23.846 9.20711 23.846 9.21903 23.8462 9.23095V20.7694C23.8462 21.0754 23.9718 21.3689 24.1954 21.5853C24.419 21.8017 24.7223 21.9233 25.0385 21.9233C25.3547 21.9233 25.658 21.8017 25.8816 21.5853C26.1052 21.3689 26.2308 21.0754 26.2308 20.7694V9.23095C26.2332 9.19865 26.2606 8.91365 26.4168 8.61826C26.5825 8.30672 26.666 8.07711 27.4231 8.07711C28.1742 8.07711 28.2613 8.29634 28.4294 8.61826C28.588 8.92403 28.613 9.23441 28.6154 9.26672V21.9233C28.6136 21.9594 28.6136 21.9956 28.6154 22.0317C28.5832 23.864 27.7903 24.486 26.9009 24.9163C25.9947 25.3548 25.0385 25.3848 25.0385 25.3848C25.0385 25.3848 24.0846 25.3606 23.1749 24.9163C22.2664 24.4721 21.4615 23.819 21.4615 21.8875V8.04134ZM4.4342 13.8463C4.11798 13.8893 3.83237 14.0521 3.64018 14.2989C3.448 14.5457 3.36499 14.8563 3.40942 15.1623C3.45384 15.4683 3.62207 15.7447 3.87709 15.9307C4.13211 16.1167 4.45302 16.197 4.76924 16.154H8.34617C8.66239 16.154 8.96565 16.0325 9.18925 15.8161C9.41286 15.5997 9.53847 15.3062 9.53847 15.0002C9.53847 14.6942 9.41286 14.4007 9.18925 14.1843C8.96565 13.9679 8.66239 13.8463 8.34617 13.8463H4.76924C4.7319 13.8446 4.6945 13.8446 4.65717 13.8463C4.61983 13.8446 4.58243 13.8446 4.54509 13.8463C4.50815 13.8447 4.47115 13.8447 4.4342 13.8463ZM11.588 13.8463C11.2718 13.8893 10.9862 14.0521 10.794 14.2989C10.6018 14.5457 10.5188 14.8563 10.5633 15.1623C10.6077 15.4683 10.7759 15.7447 11.0309 15.9307C11.286 16.1167 11.6069 16.197 11.9231 16.154H16.6923C17.0085 16.154 17.3118 16.0325 17.5354 15.8161C17.759 15.5997 17.8846 15.3062 17.8846 15.0002C17.8846 14.6942 17.759 14.4007 17.5354 14.1843C17.3118 13.9679 17.0085 13.8463 16.6923 13.8463H11.9231C11.8857 13.8446 11.8483 13.8446 11.811 13.8463C11.7737 13.8446 11.7363 13.8446 11.6989 13.8463C11.662 13.8447 11.625 13.8447 11.588 13.8463ZM4.4342 17.3079C4.11798 17.3509 3.83237 17.5137 3.64018 17.7605C3.448 18.0073 3.36499 18.3178 3.40942 18.6238C3.45384 18.9299 3.62207 19.2063 3.87709 19.3922C4.13211 19.5782 4.45302 19.6586 4.76924 19.6156H8.34617C8.66239 19.6156 8.96565 19.494 9.18925 19.2776C9.41286 19.0612 9.53847 18.7677 9.53847 18.4617C9.53847 18.1557 9.41286 17.8622 9.18925 17.6458C8.96565 17.4294 8.66239 17.3079 8.34617 17.3079H4.76924C4.7319 17.3062 4.6945 17.3062 4.65717 17.3079C4.61983 17.3062 4.58243 17.3062 4.54509 17.3079C4.50815 17.3062 4.47115 17.3062 4.4342 17.3079ZM11.588 17.3079C11.2718 17.3509 10.9862 17.5137 10.794 17.7605C10.6018 18.0073 10.5188 18.3178 10.5633 18.6238C10.6077 18.9299 10.7759 19.2063 11.0309 19.3922C11.286 19.5782 11.6069 19.6586 11.9231 19.6156H16.6923C17.0085 19.6156 17.3118 19.494 17.5354 19.2776C17.759 19.0612 17.8846 18.7677 17.8846 18.4617C17.8846 18.1557 17.759 17.8622 17.5354 17.6458C17.3118 17.4294 17.0085 17.3079 16.6923 17.3079H11.9231C11.8857 17.3062 11.8483 17.3062 11.811 17.3079C11.7737 17.3062 11.7363 17.3062 11.6989 17.3079C11.662 17.3062 11.625 17.3062 11.588 17.3079ZM5.03036 20.7694C4.71414 20.8124 4.42852 20.9752 4.23633 21.222C4.04415 21.4688 3.96114 21.7794 4.00557 22.0854C4.05 22.3914 4.21823 22.6678 4.47324 22.8538C4.72826 23.0398 5.04918 23.1201 5.3654 23.0771H8.34617C8.66239 23.0771 8.96565 22.9555 9.18925 22.7392C9.41286 22.5228 9.53847 22.2293 9.53847 21.9233C9.53847 21.6172 9.41286 21.3238 9.18925 21.1074C8.96565 20.891 8.66239 20.7694 8.34617 20.7694H5.3654C5.32806 20.7677 5.29066 20.7677 5.25332 20.7694C5.21638 20.7678 5.17938 20.7678 5.14244 20.7694C5.1051 20.7677 5.0677 20.7677 5.03036 20.7694ZM11.588 20.7694C11.2718 20.8124 10.9862 20.9752 10.794 21.222C10.6018 21.4688 10.5188 21.7794 10.5633 22.0854C10.6077 22.3914 10.7759 22.6678 11.0309 22.8538C11.286 23.0398 11.6069 23.1201 11.9231 23.0771H16.6923C17.0085 23.0771 17.3118 22.9555 17.5354 22.7392C17.759 22.5228 17.8846 22.2293 17.8846 21.9233C17.8846 21.6172 17.759 21.3238 17.5354 21.1074C17.3118 20.891 17.0085 20.7694 16.6923 20.7694H11.9231C11.8857 20.7677 11.8483 20.7677 11.811 20.7694C11.7737 20.7677 11.7363 20.7677 11.6989 20.7694C11.662 20.7678 11.625 20.7678 11.588 20.7694Z" fill="white"/>
</g>
<defs>
<clipPath id="clip0_128_2119">
<rect width="31" height="30" fill="white"/>
</clipPath>
</defs>
</svg>
