<svg width="23" height="24" viewBox="0 0 23 24" fill="none" xmlns="http://www.w3.org/2000/svg">
<path d="M11.5 11.9998C9.9875 11.9998 8.69271 11.445 7.61563 10.3353C6.53854 9.22553 6 7.8915 6 6.33317C6 4.77484 6.53854 3.44081 7.61563 2.33109C8.69271 1.22137 9.9875 0.666504 11.5 0.666504C13.0125 0.666504 14.3073 1.22137 15.3844 2.33109C16.4615 3.44081 17 4.77484 17 6.33317C17 7.8915 16.4615 9.22553 15.3844 10.3353C14.3073 11.445 13.0125 11.9998 11.5 11.9998ZM0.5 23.3332V19.3665C0.5 18.5637 0.70075 17.8261 1.10225 17.1537C1.50375 16.4812 2.03633 15.9674 2.7 15.6123C4.12083 14.8804 5.56458 14.3317 7.03125 13.9662C8.49792 13.6007 9.9875 13.4174 11.5 13.4165C13.0125 13.4165 14.5021 13.5997 15.9688 13.9662C17.4354 14.3326 18.8792 14.8813 20.3 15.6123C20.9646 15.9665 21.4976 16.4803 21.8991 17.1537C22.3006 17.8271 22.5009 18.5647 22.5 19.3665V23.3332H0.5Z" fill="white"/>
</svg>
