<svg width="34" height="32" viewBox="0 0 34 32" fill="none" xmlns="http://www.w3.org/2000/svg">
<path d="M34 20V32H17V20H21.25V16H29.75V20H34ZM23.375 20H27.625V18H23.375V20ZM31.875 26H29.75V28H27.625V26H23.375V28H21.25V26H19.125V30H31.875V26ZM31.875 22H19.125V24H31.875V22ZM25.9814 14C25.3838 13.3646 24.6755 12.875 23.8564 12.5312C23.0374 12.1875 22.1686 12.0104 21.25 12C20.3646 12 19.54 12.1562 18.7764 12.4688C18.0127 12.7812 17.3376 13.2083 16.751 13.75C16.1644 14.2917 15.7051 14.9323 15.373 15.6719C15.041 16.4115 14.875 17.1875 14.875 18C14.875 18.9583 14.6481 19.8594 14.1943 20.7031C13.7406 21.5469 13.0986 22.2552 12.2686 22.8281C12.7666 23.0677 13.2314 23.3438 13.6631 23.6562C14.0947 23.9688 14.4987 24.3229 14.875 24.7188V30C14.875 29.1771 14.709 28.401 14.377 27.6719C14.0449 26.9427 13.5911 26.3073 13.0156 25.7656C12.4401 25.224 11.7594 24.7917 10.9736 24.4688C10.1878 24.1458 9.36328 23.9896 8.5 24C7.61458 24 6.79004 24.1562 6.02637 24.4688C5.2627 24.7812 4.58756 25.2083 4.00098 25.75C3.41439 26.2917 2.95508 26.9323 2.62305 27.6719C2.29102 28.4115 2.125 29.1875 2.125 30H0C0 29.2396 0.110677 28.5052 0.332031 27.7969C0.553385 27.0885 0.868815 26.4167 1.27832 25.7812C1.68783 25.1458 2.18587 24.5833 2.77246 24.0938C3.35905 23.6042 4.01204 23.1823 4.73145 22.8281C3.91243 22.2656 3.27604 21.5625 2.82227 20.7188C2.36849 19.875 2.13607 18.9688 2.125 18C2.125 17.1771 2.29102 16.401 2.62305 15.6719C2.95508 14.9427 3.40885 14.3073 3.98438 13.7656C4.5599 13.224 5.23503 12.7917 6.00977 12.4688C6.78451 12.1458 7.61458 11.9896 8.5 12C9.51823 12 10.4756 12.2135 11.3721 12.6406C12.2686 13.0677 13.0212 13.6719 13.6299 14.4531C14.0505 13.6719 14.5872 12.974 15.2402 12.3594C15.8932 11.7448 16.6403 11.2344 17.4814 10.8281C16.6624 10.2656 16.026 9.5625 15.5723 8.71875C15.1185 7.875 14.8861 6.96875 14.875 6C14.875 5.17708 15.041 4.40104 15.373 3.67188C15.7051 2.94271 16.1589 2.30729 16.7344 1.76562C17.3099 1.22396 17.985 0.791667 18.7598 0.46875C19.5345 0.145833 20.3646 -0.0104167 21.25 0C22.1243 0 22.9489 0.15625 23.7236 0.46875C24.4984 0.78125 25.1735 1.20833 25.749 1.75C26.3245 2.29167 26.7839 2.93229 27.127 3.67188C27.4701 4.41146 27.6361 5.1875 27.625 6C27.625 6.95833 27.3981 7.85938 26.9443 8.70312C26.4906 9.54688 25.8486 10.2552 25.0186 10.8281C25.7712 11.1823 26.4518 11.625 27.0605 12.1562C27.6693 12.6875 28.1839 13.3021 28.6045 14H25.9814ZM8.5 22C9.08659 22 9.63444 21.8958 10.1436 21.6875C10.6527 21.4792 11.1064 21.1927 11.5049 20.8281C11.9033 20.4635 12.2077 20.0417 12.418 19.5625C12.6283 19.0833 12.7389 18.5625 12.75 18C12.75 17.4479 12.6393 16.9323 12.418 16.4531C12.1966 15.974 11.8923 15.5469 11.5049 15.1719C11.1175 14.7969 10.6693 14.5104 10.1602 14.3125C9.65104 14.1146 9.09766 14.0104 8.5 14C7.91341 14 7.36556 14.1042 6.85645 14.3125C6.34733 14.5208 5.89355 14.8073 5.49512 15.1719C5.09668 15.5365 4.79232 15.9583 4.58203 16.4375C4.37174 16.9167 4.26107 17.4375 4.25 18C4.25 18.5521 4.36068 19.0677 4.58203 19.5469C4.80339 20.026 5.10775 20.4531 5.49512 20.8281C5.88249 21.2031 6.33073 21.4896 6.83984 21.6875C7.34896 21.8854 7.90234 21.9896 8.5 22ZM17 6C17 6.55208 17.1107 7.06771 17.332 7.54688C17.5534 8.02604 17.8577 8.45312 18.2451 8.82812C18.6325 9.20312 19.0807 9.48958 19.5898 9.6875C20.099 9.88542 20.6523 9.98958 21.25 10C21.8366 10 22.3844 9.89583 22.8936 9.6875C23.4027 9.47917 23.8564 9.19271 24.2549 8.82812C24.6533 8.46354 24.9577 8.04167 25.168 7.5625C25.3783 7.08333 25.4889 6.5625 25.5 6C25.5 5.44792 25.3893 4.93229 25.168 4.45312C24.9466 3.97396 24.6423 3.54688 24.2549 3.17188C23.8675 2.79688 23.4193 2.51042 22.9102 2.3125C22.401 2.11458 21.8477 2.01042 21.25 2C20.6634 2 20.1156 2.10417 19.6064 2.3125C19.0973 2.52083 18.6436 2.80729 18.2451 3.17188C17.8467 3.53646 17.5423 3.95833 17.332 4.4375C17.1217 4.91667 17.0111 5.4375 17 6Z" fill="white"/>
</svg>
