<svg width="36" height="32" viewBox="0 0 36 32" fill="none" xmlns="http://www.w3.org/2000/svg">
<path d="M5.4 14C7.38562 14 9 12.2063 9 10C9 7.79375 7.38562 6 5.4 6C3.41438 6 1.8 7.79375 1.8 10C1.8 12.2063 3.41438 14 5.4 14ZM30.6 14C32.5856 14 34.2 12.2063 34.2 10C34.2 7.79375 32.5856 6 30.6 6C28.6144 6 27 7.79375 27 10C27 12.2063 28.6144 14 30.6 14ZM32.4 16H28.8C27.81 16 26.9156 16.4438 26.2631 17.1625C28.53 18.5438 30.1388 21.0375 30.4875 24H34.2C35.1956 24 36 23.1063 36 22V20C36 17.7937 34.3856 16 32.4 16ZM18 16C21.4819 16 24.3 12.8687 24.3 9C24.3 5.13125 21.4819 2 18 2C14.5181 2 11.7 5.13125 11.7 9C11.7 12.8687 14.5181 16 18 16ZM22.32 18H21.8531C20.6831 18.625 19.3837 19 18 19C16.6162 19 15.3225 18.625 14.1469 18H13.68C10.1025 18 7.2 21.225 7.2 25.2V27C7.2 28.6562 8.40938 30 9.9 30H26.1C27.5906 30 28.8 28.6562 28.8 27V25.2C28.8 21.225 25.8975 18 22.32 18ZM9.73688 17.1625C9.08438 16.4438 8.19 16 7.2 16H3.6C1.61437 16 0 17.7937 0 20V22C0 23.1063 0.804375 24 1.8 24H5.50688C5.86125 21.0375 7.47 18.5438 9.73688 17.1625Z" fill="white"/>
</svg>
